<?xml version="1.0" encoding="UTF-8"?>
<svg id="Layer_2" data-name="Layer 2" xmlns="http://www.w3.org/2000/svg" xmlns:xlink="http://www.w3.org/1999/xlink" viewBox="0 0 2965.58 1004.07">
  <defs>
    <style>
      .cls-1 {
        fill: url(#linear-gradient-2);
      }

      .cls-2 {
        fill: #fff;
      }

      .cls-3 {
        fill: url(#linear-gradient-3);
      }

      .cls-4 {
        fill: url(#linear-gradient);
      }
    </style>
    <linearGradient id="linear-gradient" x1="1920.54" y1="510.6" x2="1895.65" y2="485.72" gradientUnits="userSpaceOnUse">
      <stop offset="0" stop-color="#ff8000"/>
      <stop offset="1" stop-color="#ff00a0"/>
    </linearGradient>
    <linearGradient id="linear-gradient-2" x1="1895.51" y1="616.52" x2="1881.03" y2="602.04" xlink:href="#linear-gradient"/>
    <linearGradient id="linear-gradient-3" x1="1783.88" y1="848.25" x2="1088.79" y2="153.16" xlink:href="#linear-gradient"/>
  </defs>
  <g id="Layer_1-2" data-name="Layer 1">
    <g>
      <g>
        <path class="cls-4" d="M1879.67,503.89h47.58c-.14-7.9-.77-15.4-1.79-22.52-1.79-.19-3.66-.29-5.6-.29-20.23,0-32.61,10.44-40.18,22.81Z"/>
        <path class="cls-1" d="M1900.52,606.76h-24.2c2.92,6.18,6.76,12.13,11.8,17.16,4.04-4.86,8.27-10.56,12.4-17.16Z"/>
        <path class="cls-3" d="M1788.91,699.74c-33.7-35.38-52.26-84.29-52.26-137.71s17.75-98.85,49.97-134.4c21.53-23.75,48.48-40.71,78.63-49.92-2.82-2.06-4.51-3.06-4.51-3.06,0,0,23.61-88.21-23.24-161.42-51.66-80.74-128.56-78.96-128.56-78.96,0,0-13.76-66.36-71.09-103.2-13.15-8.45-45.03-31.07-91.89-31.07-77.67,0-93.06,47.41-93.06,61.2v241.61c0,9.16-7.42,16.58-16.58,16.58s-16.58-7.42-16.58-16.58V61.2c0-13.79-15.39-61.2-93.06-61.2-46.86,0-78.74,22.62-91.89,31.07-57.32,36.84-71.09,103.2-71.09,103.2,0,0-76.9-1.78-128.56,78.96-46.84,73.21-23.24,161.42-23.24,161.42,0,0-66.55,39.68-66.55,132.76,0,59.22,22.74,97.41,40.73,118.36,12.95-10.72,15.41-30.68,15.41-44.21v-169.46c0-18.35,14.93-33.27,33.27-33.27h64.38c18.35,0,33.27,14.93,33.27,33.27v167.63c0,50-15.51,93.21-44.86,124.96-19.43,21.02-43.88,35.78-72.16,43.81,5.48,17.48,13.78,34.99,26.2,50.53,55.67,69.7,119.06,70.64,119.06,70.64,0,0,13.18,71.13,74.61,108.12,23.29,14.03,55.15,31.89,98.39,24.59,75.42-12.74,86.07-64.13,86.07-72.01v-262.69c0-9.16,7.42-16.58,16.58-16.58s16.58,7.42,16.58,16.58v262.69c0,7.88,10.65,59.27,86.07,72.01,43.24,7.3,75.1-10.56,98.39-24.59,61.42-36.99,74.61-108.12,74.61-108.12,0,0,63.38-.94,119.06-70.64,13.34-16.71,21.93-35.68,27.38-54.45-26.47-9.37-50.17-24.53-69.51-44.84ZM1646.77,819.63c-56.84,0-103.08-46.24-103.08-103.08,0-3.24.15-6.49.46-9.71l-108.32-108.32-107.38,107.38c.37,3.54.55,7.09.55,10.65,0,56.84-46.24,103.08-103.08,103.08s-103.08-46.24-103.08-103.08,46.24-103.08,103.08-103.08c1.69,0,3.39.04,5.08.13l109.96-109.96-113.05-113.05c-.67.01-1.33.02-1.99.02-56.84,0-103.08-46.24-103.08-103.08s46.24-103.08,103.08-103.08,103.08,46.24,103.08,103.08c0,4.53-.3,9.04-.89,13.51l107.72,107.72,108.64-108.64c-.51-4.17-.77-8.38-.77-12.6,0-56.84,46.24-103.08,103.08-103.08s103.08,46.24,103.08,103.08-46.24,103.08-103.08,103.08c-1,0-2-.01-3-.04l-113.07,113.07,110.01,110.01c2.02-.12,4.04-.18,6.06-.18,56.84,0,103.08,46.24,103.08,103.08s-46.24,103.08-103.08,103.08Z"/>
      </g>
      <path class="cls-2" d="M279.41,544.39v-243.33c0-5.81,4.71-10.51,10.51-10.51h66.82c5.81,0,10.51,4.71,10.51,10.51v488.41c0,10.19-13.04,14.42-19.02,6.18L106.87,463.17c-5.98-8.24-19.02-4.01-19.02,6.18v243.84c0,5.81-4.71,10.51-10.51,10.51H10.51c-5.81,0-10.51-4.71-10.51-10.51V217.73c0-10.24,13.14-14.44,19.08-6.1l241.26,338.85c5.94,8.34,19.08,4.14,19.08-6.1Z"/>
      <path class="cls-2" d="M597.86,392.44c98.22,0,157.4,72.6,157.4,170.21v10.84c0,5.81-4.71,10.51-10.51,10.51h-207.78c-6.94,0-11.92,6.59-10.14,13.29,9.61,36.29,34.48,63.58,75.92,63.58,27.96,0,49.76-12.3,65.42-34.08,2.63-3.66,7.37-5.15,11.67-3.78l57.42,18.37c6.19,1.98,9.15,9.06,6.15,14.82-26.39,50.6-84.89,76.64-141.27,76.64-97,0-164.72-73.21-164.72-170.82,0-91.51,64.06-169.6,160.45-169.6ZM538.79,526.65h115.72c6.91,0,11.98-6.56,10.16-13.22-8.56-31.47-30.83-55.11-66.82-55.11s-58.99,23.42-69.1,54.67c-2.18,6.75,2.94,13.66,10.03,13.66Z"/>
      <path class="cls-2" d="M891.76,401.59c5.81,0,10.51,4.71,10.51,10.51v169.46c0,38.43,17.69,74.43,61.01,74.43s61.01-35.99,61.01-74.43v-169.46c0-5.81,4.71-10.51,10.51-10.51h64.38c5.81,0,10.51,4.71,10.51,10.51v167.63c0,87.85-54.3,153.13-147.64,153.13s-145.2-62.23-145.2-153.13v-167.63c0-5.81,4.71-10.51,10.51-10.51h64.38Z"/>
      <path class="cls-2" d="M1498.51,503.63l136.63-136.64c3.8.55,7.68.84,11.63.84,44.36,0,80.32-35.96,80.32-80.32s-35.96-80.32-80.32-80.32-80.32,35.96-80.32,80.32c0,6.99.9,13.76,2.58,20.21l-133.21,133.21-132.39-132.39c1.82-6.7,2.8-13.75,2.8-21.03,0-44.36-35.96-80.32-80.32-80.32s-80.32,35.96-80.32,80.32,35.96,80.32,80.32,80.32c3.63,0,7.21-.26,10.71-.73l136.52,136.52-133.73,133.73c-4.39-.75-8.9-1.14-13.5-1.14-44.36,0-80.32,35.96-80.32,80.32s35.96,80.32,80.32,80.32,80.32-35.96,80.32-80.32c0-6.36-.74-12.55-2.15-18.48l131.74-131.74,132.58,132.58c-1.27,5.68-1.95,11.58-1.95,17.65,0,44.36,35.96,80.32,80.32,80.32s80.32-35.96,80.32-80.32-35.96-80.32-80.32-80.32c-4.91,0-9.71.45-14.37,1.3l-133.89-133.89Z"/>
      <path class="cls-2" d="M1919.85,392.44c98.22,0,157.4,72.6,157.4,170.21v10.84c0,5.81-4.71,10.51-10.51,10.51h-207.78c-6.94,0-11.92,6.59-10.14,13.29,9.61,36.29,34.48,63.58,75.92,63.58,27.96,0,49.76-12.3,65.42-34.08,2.63-3.66,7.37-5.15,11.67-3.78l57.42,18.37c6.19,1.98,9.15,9.06,6.15,14.82-26.39,50.6-84.89,76.64-141.27,76.64-97,0-164.72-73.21-164.72-170.82,0-91.51,64.06-169.6,160.45-169.6ZM1860.79,526.65h115.72c6.91,0,11.98-6.56,10.16-13.22-8.56-31.47-30.83-55.11-66.82-55.11s-58.99,23.42-69.1,54.67c-2.18,6.75,2.94,13.66,10.03,13.66Z"/>
      <path class="cls-2" d="M2142.03,287.46l64.38-62.83c6.66-6.5,17.86-1.78,17.86,7.52v486.85c0,2.99-1.28,5.84-3.51,7.84l-64.38,57.53c-6.77,6.05-17.52,1.24-17.52-7.84v-481.54c0-2.83,1.14-5.55,3.17-7.52Z"/>
      <path class="cls-2" d="M2449.38,392.44c98.22,0,157.4,72.6,157.4,170.21v10.84c0,5.81-4.71,10.51-10.51,10.51h-207.78c-6.94,0-11.92,6.59-10.14,13.29,9.61,36.29,34.48,63.58,75.92,63.58,27.96,0,49.76-12.3,65.42-34.08,2.63-3.66,7.37-5.15,11.67-3.78l57.42,18.37c6.19,1.98,9.15,9.06,6.15,14.82-26.39,50.6-84.89,76.64-141.27,76.64-97,0-164.72-73.21-164.72-170.82,0-91.51,64.06-169.6,160.45-169.6ZM2390.32,526.65h115.72c6.91,0,11.98-6.56,10.16-13.22-8.56-31.47-30.83-55.11-66.82-55.11s-58.99,23.42-69.1,54.67c-2.18,6.75,2.94,13.66,10.03,13.66Z"/>
      <path class="cls-2" d="M2823.34,392.44c63.16,0,118.21,34.04,138.71,93.99,2.07,6.05-1.64,12.55-7.92,13.77l-61.82,12.08c-4.52.88-9.11-1.26-11.27-5.33-12.13-22.94-32.29-37.65-59.54-37.65-50.64,0-75.04,49.42-75.04,94.56s24.4,92.12,75.04,92.12c27.27,0,50.48-13.71,62.68-37.42,2.14-4.16,6.77-6.41,11.36-5.52l61.53,12.03c6.32,1.24,10.03,7.81,7.88,13.88-21.4,60.39-79.76,93.9-144.06,93.9-93.95,0-161.67-73.21-161.67-167.77s66.5-172.65,164.11-172.65Z"/>
    </g>
  </g>
</svg>