<svg xmlns="http://www.w3.org/2000/svg" width="620" height="300" viewBox="0 0 620 300"><rect width="620" height="300" rx="16" fill="#07080E"/><rect x="18" y="18" width="42" height="42" rx="9" fill="#11131B" stroke="#F5F5FA" stroke-opacity=".55"/><image href="qt_expand.svg" x="27" y="27" width="24" height="24"/><text x="68" y="43" fill="#F5F5FA" font-family="Segoe UI,Arial" font-size="9">expand</text><rect x="168" y="18" width="42" height="42" rx="9" fill="#11131B" stroke="#F5F5FA" stroke-opacity=".55"/><image href="qt_collapse.svg" x="177" y="27" width="24" height="24"/><text x="218" y="43" fill="#F5F5FA" font-family="Segoe UI,Arial" font-size="9">collapse</text><rect x="318" y="18" width="42" height="42" rx="9" fill="#11131B" stroke="#F5F5FA" stroke-opacity=".55"/><image href="qt_screenshot.svg" x="327" y="27" width="24" height="24"/><text x="368" y="43" fill="#F5F5FA" font-family="Segoe UI,Arial" font-size="9">screenshot</text><rect x="468" y="18" width="42" height="42" rx="9" fill="#11131B" stroke="#F5F5FA" stroke-opacity=".55"/><image href="qt_gif.svg" x="477" y="27" width="24" height="24"/><text x="518" y="43" fill="#F5F5FA" font-family="Segoe UI,Arial" font-size="9">gif</text><rect x="18" y="80" width="42" height="42" rx="9" fill="#11131B" stroke="#F5F5FA" stroke-opacity=".55"/><image href="qt_save.svg" x="27" y="89" width="24" height="24"/><text x="68" y="105" fill="#F5F5FA" font-family="Segoe UI,Arial" font-size="9">save</text><rect x="168" y="80" width="42" height="42" rx="9" fill="#11131B" stroke="#F5F5FA" stroke-opacity=".55"/><image href="qt_restore.svg" x="177" y="89" width="24" height="24"/><text x="218" y="105" fill="#F5F5FA" font-family="Segoe UI,Arial" font-size="9">restore</text><rect x="318" y="80" width="42" height="42" rx="9" fill="#11131B" stroke="#F5F5FA" stroke-opacity=".55"/><image href="qt_transparent_background.svg" x="327" y="89" width="24" height="24"/><text x="368" y="105" fill="#F5F5FA" font-family="Segoe UI,Arial" font-size="9">transparent_background</text><rect x="468" y="80" width="42" height="42" rx="9" fill="#11131B" stroke="#F5F5FA" stroke-opacity=".55"/><image href="qt_front.svg" x="477" y="89" width="24" height="24"/><text x="518" y="105" fill="#F5F5FA" font-family="Segoe UI,Arial" font-size="9">front</text><rect x="18" y="142" width="42" height="42" rx="9" fill="#11131B" stroke="#F5F5FA" stroke-opacity=".55"/><image href="qt_back.svg" x="27" y="151" width="24" height="24"/><text x="68" y="167" fill="#F5F5FA" font-family="Segoe UI,Arial" font-size="9">back</text><rect x="168" y="142" width="42" height="42" rx="9" fill="#11131B" stroke="#F5F5FA" stroke-opacity=".55"/><image href="qt_left.svg" x="177" y="151" width="24" height="24"/><text x="218" y="167" fill="#F5F5FA" font-family="Segoe UI,Arial" font-size="9">left</text><rect x="318" y="142" width="42" height="42" rx="9" fill="#11131B" stroke="#F5F5FA" stroke-opacity=".55"/><image href="qt_right.svg" x="327" y="151" width="24" height="24"/><text x="368" y="167" fill="#F5F5FA" font-family="Segoe UI,Arial" font-size="9">right</text><rect x="468" y="142" width="42" height="42" rx="9" fill="#11131B" stroke="#F5F5FA" stroke-opacity=".55"/><image href="qt_beauty_left.svg" x="477" y="151" width="24" height="24"/><text x="518" y="167" fill="#F5F5FA" font-family="Segoe UI,Arial" font-size="9">beauty_left</text><rect x="18" y="204" width="42" height="42" rx="9" fill="#11131B" stroke="#F5F5FA" stroke-opacity=".55"/><image href="qt_beauty_right.svg" x="27" y="213" width="24" height="24"/><text x="68" y="229" fill="#F5F5FA" font-family="Segoe UI,Arial" font-size="9">beauty_right</text><rect x="168" y="204" width="42" height="42" rx="9" fill="#11131B" stroke="#F5F5FA" stroke-opacity=".55"/><image href="qt_rotate_45.svg" x="177" y="213" width="24" height="24"/><text x="218" y="229" fill="#F5F5FA" font-family="Segoe UI,Arial" font-size="9">rotate_45</text><rect x="318" y="204" width="42" height="42" rx="9" fill="#11131B" stroke="#F5F5FA" stroke-opacity=".55"/><image href="qt_rotate_90.svg" x="327" y="213" width="24" height="24"/><text x="368" y="229" fill="#F5F5FA" font-family="Segoe UI,Arial" font-size="9">rotate_90</text><rect x="468" y="204" width="42" height="42" rx="9" fill="#11131B" stroke="#F5F5FA" stroke-opacity=".55"/><image href="qt_rotate_135.svg" x="477" y="213" width="24" height="24"/><text x="518" y="229" fill="#F5F5FA" font-family="Segoe UI,Arial" font-size="9">rotate_135</text><rect x="18" y="266" width="42" height="42" rx="9" fill="#11131B" stroke="#F5F5FA" stroke-opacity=".55"/><image href="qt_rotate_180.svg" x="27" y="275" width="24" height="24"/><text x="68" y="291" fill="#F5F5FA" font-family="Segoe UI,Arial" font-size="9">rotate_180</text></svg>